<svg width="1873" height="2475" xmlns="http://www.w3.org/2000/svg" xmlns:xlink="http://www.w3.org/1999/xlink" xml:space="preserve" overflow="hidden"><defs><filter id="fx0" x="-10%" y="-10%" width="120%" height="120%" filterUnits="userSpaceOnUse" primitiveUnits="userSpaceOnUse"><feComponentTransfer color-interpolation-filters="sRGB"><feFuncR type="discrete" tableValues="0 0"/><feFuncG type="discrete" tableValues="0 0"/><feFuncB type="discrete" tableValues="0 0"/><feFuncA type="linear" slope="0.4" intercept="0"/></feComponentTransfer><feGaussianBlur stdDeviation="6.11111 6.11111"/></filter><filter id="fx1" x="-10%" y="-10%" width="120%" height="120%" filterUnits="userSpaceOnUse" primitiveUnits="userSpaceOnUse"><feComponentTransfer color-interpolation-filters="sRGB"><feFuncR type="discrete" tableValues="0 0"/><feFuncG type="discrete" tableValues="0 0"/><feFuncB type="discrete" tableValues="0 0"/><feFuncA type="linear" slope="0.4" intercept="0"/></feComponentTransfer><feGaussianBlur stdDeviation="6.11111 6.11111"/></filter><filter id="fx2" x="-10%" y="-10%" width="120%" height="120%" filterUnits="userSpaceOnUse" primitiveUnits="userSpaceOnUse"><feComponentTransfer color-interpolation-filters="sRGB"><feFuncR type="discrete" tableValues="0 0"/><feFuncG type="discrete" tableValues="0 0"/><feFuncB type="discrete" tableValues="0 0"/><feFuncA type="linear" slope="0.4" intercept="0"/></feComponentTransfer><feGaussianBlur stdDeviation="6.11111 6.11111"/></filter><filter id="fx3" x="-10%" y="-10%" width="120%" height="120%" filterUnits="userSpaceOnUse" primitiveUnits="userSpaceOnUse"><feComponentTransfer color-interpolation-filters="sRGB"><feFuncR type="discrete" tableValues="0 0"/><feFuncG type="discrete" tableValues="0 0"/><feFuncB type="discrete" tableValues="0 0"/><feFuncA type="linear" slope="0.4" intercept="0"/></feComponentTransfer><feGaussianBlur stdDeviation="6.11111 6.11111"/></filter><filter id="fx4" x="-10%" y="-10%" width="120%" height="120%" filterUnits="userSpaceOnUse" primitiveUnits="userSpaceOnUse"><feComponentTransfer color-interpolation-filters="sRGB"><feFuncR type="discrete" tableValues="0 0"/><feFuncG type="discrete" tableValues="0 0"/><feFuncB type="discrete" tableValues="0 0"/><feFuncA type="linear" slope="0.4" intercept="0"/></feComponentTransfer><feGaussianBlur stdDeviation="6.11111 6.11111"/></filter><filter id="fx5" x="-10%" y="-10%" width="120%" height="120%" filterUnits="userSpaceOnUse" primitiveUnits="userSpaceOnUse"><feComponentTransfer color-interpolation-filters="sRGB"><feFuncR type="discrete" tableValues="0 0"/><feFuncG type="discrete" tableValues="0 0"/><feFuncB type="discrete" tableValues="0 0"/><feFuncA type="linear" slope="0.4" intercept="0"/></feComponentTransfer><feGaussianBlur stdDeviation="6.11111 6.11111"/></filter><filter id="fx6" x="-10%" y="-10%" width="120%" height="120%" filterUnits="userSpaceOnUse" primitiveUnits="userSpaceOnUse"><feComponentTransfer color-interpolation-filters="sRGB"><feFuncR type="discrete" tableValues="0 0"/><feFuncG type="discrete" tableValues="0 0"/><feFuncB type="discrete" tableValues="0 0"/><feFuncA type="linear" slope="0.4" intercept="0"/></feComponentTransfer><feGaussianBlur stdDeviation="6.11111 6.11111"/></filter><filter id="fx7" x="-10%" y="-10%" width="120%" height="120%" filterUnits="userSpaceOnUse" primitiveUnits="userSpaceOnUse"><feComponentTransfer color-interpolation-filters="sRGB"><feFuncR type="discrete" tableValues="0 0"/><feFuncG type="discrete" tableValues="0 0"/><feFuncB type="discrete" tableValues="0 0"/><feFuncA type="linear" slope="0.4" intercept="0"/></feComponentTransfer><feGaussianBlur stdDeviation="6.11111 6.11111"/></filter><filter id="fx8" x="-10%" y="-10%" width="120%" height="120%" filterUnits="userSpaceOnUse" primitiveUnits="userSpaceOnUse"><feComponentTransfer color-interpolation-filters="sRGB"><feFuncR type="discrete" tableValues="0 0"/><feFuncG type="discrete" tableValues="0 0"/><feFuncB type="discrete" tableValues="0 0"/><feFuncA type="linear" slope="0.4" intercept="0"/></feComponentTransfer><feGaussianBlur stdDeviation="6.11111 6.11111"/></filter><filter id="fx9" x="-10%" y="-10%" width="120%" height="120%" filterUnits="userSpaceOnUse" primitiveUnits="userSpaceOnUse"><feComponentTransfer color-interpolation-filters="sRGB"><feFuncR type="discrete" tableValues="0 0"/><feFuncG type="discrete" tableValues="0 0"/><feFuncB type="discrete" tableValues="0 0"/><feFuncA type="linear" slope="0.4" intercept="0"/></feComponentTransfer><feGaussianBlur stdDeviation="6.11111 6.11111"/></filter><filter id="fx10" x="-10%" y="-10%" width="120%" height="120%" filterUnits="userSpaceOnUse" primitiveUnits="userSpaceOnUse"><feComponentTransfer color-interpolation-filters="sRGB"><feFuncR type="discrete" tableValues="0 0"/><feFuncG type="discrete" tableValues="0 0"/><feFuncB type="discrete" tableValues="0 0"/><feFuncA type="linear" slope="0.4" intercept="0"/></feComponentTransfer><feGaussianBlur stdDeviation="6.11111 6.11111"/></filter><clipPath id="clip11"><rect x="1" y="0" width="1873" height="2475"/></clipPath><clipPath id="clip12"><rect x="145" y="52" width="355" height="548"/></clipPath><clipPath id="clip13"><rect x="0" y="0" width="646" height="646"/></clipPath><clipPath id="clip14"><rect x="19" y="19" width="607" height="607"/></clipPath><clipPath id="clip15"><rect x="19" y="19" width="607" height="607"/></clipPath><clipPath id="clip16"><rect x="19" y="19" width="607" height="607"/></clipPath><clipPath id="clip17"><rect x="112" y="480" width="607" height="607"/></clipPath><clipPath id="clip18"><rect x="112" y="480" width="607" height="607"/></clipPath><clipPath id="clip19"><rect x="112" y="480" width="607" height="607"/></clipPath><clipPath id="clip20"><rect x="-3" y="-3" width="296" height="296"/></clipPath><clipPath id="clip21"><rect x="0" y="0" width="291" height="291"/></clipPath><clipPath id="clip22"><rect x="87" y="77" width="193" height="151"/></clipPath><clipPath id="clip23"><rect x="0" y="0" width="362" height="348"/></clipPath><clipPath id="clip24"><rect x="-3" y="-3" width="296" height="296"/></clipPath><clipPath id="clip25"><rect x="0" y="0" width="291" height="290"/></clipPath><clipPath id="clip26"><rect x="94" y="73" width="113" height="155"/></clipPath><clipPath id="clip27"><rect x="0" y="0" width="299" height="348"/></clipPath><clipPath id="clip28"><rect x="-3" y="-3" width="296" height="296"/></clipPath><clipPath id="clip29"><rect x="0" y="0" width="291" height="291"/></clipPath><clipPath id="clip30"><rect x="94" y="77" width="141" height="148"/></clipPath><clipPath id="clip31"><rect x="0" y="0" width="325" height="348"/></clipPath><clipPath id="clip32"><rect x="-3" y="-3" width="296" height="296"/></clipPath><clipPath id="clip33"><rect x="0" y="0" width="291" height="290"/></clipPath><clipPath id="clip34"><rect x="83" y="73" width="142" height="152"/></clipPath><clipPath id="clip35"><rect x="0" y="0" width="307" height="348"/></clipPath><clipPath id="clip36"><rect x="-3" y="-3" width="981" height="276"/></clipPath><clipPath id="clip37"><rect x="0" y="0" width="974" height="269"/></clipPath><clipPath id="clip38"><rect x="70" y="56" width="337" height="151"/></clipPath><clipPath id="clip39"><rect x="0" y="0" width="475" height="271"/></clipPath></defs><g clip-path="url(#clip11)" transform="translate(-1 0)"><rect x="1.00003" y="0" width="1872" height="2475" fill="#EDEDED"/><text fill="#0000FF" font-family="Lora,Lora_MSFontService,sans-serif" font-weight="700" font-size="165" transform="matrix(1 0 0 1 176.007 274)">Computer </text><text fill="#0000FF" font-family="Lora,Lora_MSFontService,sans-serif" font-weight="700" font-size="165" transform="matrix(1 0 0 1 1015.33 274)">Controls</text><path d="M136 1278.96C136 1228.17 177.172 1187 227.961 1187L1647.04 1187C1697.83 1187 1739 1228.17 1739 1278.96L1739 2251.04C1739 2301.83 1697.83 2343 1647.04 2343L227.961 2343C177.172 2343 136 2301.83 136 2251.04Z" fill="#FFFFFF" fill-rule="evenodd"/><path d="M134 512.212C134 469.569 168.569 435 211.212 435L1661.79 435C1704.43 435 1739 469.569 1739 512.212L1739 1048.79C1739 1091.43 1704.43 1126 1661.79 1126L211.212 1126C168.569 1126 134 1091.43 134 1048.79Z" fill="#FFFFFF" fill-rule="evenodd"/><text font-family="Lora,Lora_MSFontService,sans-serif" font-weight="400" font-size="96" transform="matrix(1 0 0 1 271.266 1365)">Use </text><text font-family="Lora,Lora_MSFontService,sans-serif" font-weight="400" font-size="96" transform="matrix(1 0 0 1 465.485 1365)">your</text><text fill="#0000FF" font-family="Lora,Lora_MSFontService,sans-serif" font-weight="700" font-size="96" transform="matrix(1 0 0 1 696.943 1365)">Mouse</text><text font-family="Lora,Lora_MSFontService,sans-serif" font-weight="400" font-size="96" transform="matrix(1 0 0 1 1027.52 1365)">or</text><text fill="#0000FF" font-family="Lora,Lora_MSFontService,sans-serif" font-weight="700" font-size="96" transform="matrix(1 0 0 1 1150.69 1365)">Touchpad</text><text font-family="Lora,Lora_MSFontService,sans-serif" font-weight="400" font-size="96" transform="matrix(1 0 0 1 384.704 1480)">to</text><text font-family="Lora,Lora_MSFontService,sans-serif" font-weight="400" font-size="96" transform="matrix(1 0 0 1 503.298 1480)">look</text><text font-family="Lora,Lora_MSFontService,sans-serif" font-weight="400" font-size="96" transform="matrix(1 0 0 1 718.714 1480)">around</text><text font-family="Lora,Lora_MSFontService,sans-serif" font-weight="400" font-size="96" transform="matrix(1 0 0 1 1039.55 1480)">. Use </text><text font-family="Lora,Lora_MSFontService,sans-serif" font-weight="400" font-size="96" transform="matrix(1 0 0 1 1282.46 1480)">your</text><text fill="#0000FF" font-family="Lora,Lora_MSFontService,sans-serif" font-weight="700" font-size="96" transform="matrix(1 0 0 1 340.016 1596)">Keyboard</text><text font-family="Lora,Lora_MSFontService,sans-serif" font-weight="400" font-size="96" transform="matrix(1 0 0 1 802.36 1596)">to</text><text font-family="Lora,Lora_MSFontService,sans-serif" font-weight="400" font-size="96" transform="matrix(1 0 0 1 920.954 1596)">move</text><text font-family="Lora,Lora_MSFontService,sans-serif" font-weight="400" font-size="96" transform="matrix(1 0 0 1 1189.08 1596)">around</text><text font-family="Lora,Lora_MSFontService,sans-serif" font-weight="400" font-size="96" transform="matrix(1 0 0 1 1509.91 1596)">.</text><g clip-path="url(#clip12)" filter="url(#fx0)" transform="translate(102 471)"><g clip-path="url(#clip13)"><g clip-path="url(#clip14)"><g clip-path="url(#clip15)"><g clip-path="url(#clip16)"><path d="M322.723 171.223C312.026 171.464 303.549 180.328 303.785 191.025L303.785 246.973C303.785 257.432 312.264 265.91 322.723 265.91 333.182 265.91 341.66 257.432 341.66 246.973L341.66 191.025C341.896 180.328 333.419 171.464 322.723 171.223Z" fill="#D9D9D9"/><path d="M475.485 409.437C471.249 375.637 468.84 341.633 468.27 307.573 468.27 279.798 469.533 253.626 471.37 230.156 477.78 152.061 419.668 83.5553 341.573 77.1449 339.738 76.9942 337.901 76.8793 336.061 76.8003 331.55 76.6235 326.952 76.5351 322.268 76.5351 317.584 76.5351 312.987 76.6235 308.475 76.8003 230.19 80.1677 169.457 146.361 172.824 224.646 172.903 226.478 173.017 228.309 173.167 230.137 175.01 253.607 176.273 279.798 176.273 307.573 175.695 341.639 173.278 375.65 169.032 409.456 159.363 490.72 217.403 564.437 298.667 574.105 302.383 574.547 306.113 574.848 309.852 575.008 313.917 575.147 318.056 575.218 322.268 575.223 326.481 575.227 330.624 575.155 334.698 575.008 416.456 571.504 479.895 502.385 476.391 420.626 476.23 416.886 475.928 413.154 475.485 409.437ZM366.91 246.973C367.001 266.726 354.199 284.23 335.348 290.131L335.348 385.848C335.348 392.82 329.696 398.473 322.723 398.473 315.75 398.473 310.098 392.82 310.098 385.848L310.098 290.131C291.249 284.227 278.449 266.725 278.535 246.973L278.535 191.031C278.443 171.275 291.244 153.768 310.098 147.866L310.098 114.41C310.098 107.437 315.75 101.785 322.723 101.785 329.696 101.785 335.348 107.437 335.348 114.41L335.348 147.866C354.199 153.772 366.999 171.276 366.91 191.031Z" fill="#D9D9D9"/></g></g></g></g></g><g clip-path="url(#clip17)"><g clip-path="url(#clip18)"><g clip-path="url(#clip19)"><path d="M415 632.5C404.304 632.741 395.827 641.606 396.063 652.302L396.063 708.25C396.063 718.709 404.541 727.187 415 727.187 425.459 727.187 433.938 718.709 433.938 708.25L433.938 652.302C434.174 641.606 425.697 632.741 415 632.5Z" fill="#D9D9D9"/><path d="M567.763 870.715C563.526 836.914 561.117 802.91 560.547 768.85 560.547 741.075 561.81 714.903 563.647 691.433 570.057 613.338 511.945 544.833 433.85 538.422 432.015 538.272 430.178 538.157 428.338 538.078 423.827 537.901 419.229 537.812 414.546 537.812 409.862 537.812 405.264 537.901 400.753 538.078 322.467 541.445 261.734 607.638 265.102 685.923 265.18 687.756 265.295 689.586 265.444 691.414 267.288 714.884 268.55 741.075 268.55 768.85 267.972 802.917 265.555 836.928 261.31 870.734 251.641 951.998 309.68 1025.71 390.944 1035.38 394.66 1035.82 398.391 1036.13 402.129 1036.29 406.194 1036.42 410.333 1036.5 414.546 1036.5 418.758 1036.5 422.901 1036.43 426.975 1036.29 508.734 1032.78 572.172 963.662 568.668 881.903 568.508 878.164 568.206 874.432 567.763 870.715ZM459.188 708.25C459.278 728.004 446.477 745.508 427.625 751.409L427.625 847.125C427.625 854.098 421.973 859.75 415 859.75 408.027 859.75 402.375 854.098 402.375 847.125L402.375 751.409C383.526 745.504 370.727 728.002 370.813 708.25L370.813 652.309C370.72 632.552 383.521 615.045 402.375 609.144L402.375 575.687C402.375 568.715 408.027 563.062 415 563.062 421.973 563.062 427.625 568.715 427.625 575.687L427.625 609.144C446.477 615.049 459.277 632.554 459.188 652.309Z" fill="#D9D9D9"/></g></g></g><g clip-path="url(#clip20)" filter="url(#fx1)" transform="translate(1096 501)"><g clip-path="url(#clip21)"><path d="M19.7225 61.5571C19.7225 38.4527 38.4523 19.7229 61.5567 19.7229L228.889 19.7229C251.993 19.7229 270.723 38.4527 270.723 61.5571L270.723 228.889C270.723 251.994 251.993 270.723 228.889 270.723L61.5567 270.723C38.4523 270.723 19.7225 251.994 19.7225 228.889Z" fill="#F2F2F2" fill-rule="evenodd"/></g></g><g clip-path="url(#clip22)" filter="url(#fx2)" transform="translate(1060 494)"><g clip-path="url(#clip23)"><path d="M41.748 1.47 15.435-76.734C13.769-81.928 12.446-86.0195 11.466-89.0085 10.486-91.9975 9.751-94.57 9.261-96.726 7.889-96.628 6.517-96.579 5.145-96.579 3.773-96.579 2.401-96.53 1.029-96.432L1.029-102.9 36.75-102.9 36.75-98.049C31.066-97.755 27.6605-96.481 26.5335-94.227 25.4065-91.973 25.627-87.906 27.195-82.026 28.861-75.558 30.674-69.727 32.634-64.533 34.594-59.339 36.505-53.753 38.367-47.775 39.739-43.365 41.1355-39.298 42.5565-35.574 43.9775-31.85 45.423-27.685 46.893-23.079L47.187-23.079C47.677-24.745 48.1915-26.509 48.7305-28.371 49.2695-30.233 49.833-32.046 50.421-33.81 51.009-35.574 51.548-37.2155 52.038-38.7345 52.528-40.2535 52.92-41.503 53.214-42.483 55.958-51.205 58.6775-59.6575 61.3725-67.8405 64.0675-76.0235 66.444-83.2265 68.502-89.4495 70.56-95.6725 71.981-100.254 72.765-103.194L77.469-103.194C78.351-99.96 79.625-95.844 81.291-90.846 82.957-85.848 84.721-80.605 86.583-75.117 88.445-69.629 90.1845-64.435 91.8015-59.535 93.4185-54.635 94.717-50.715 95.697-47.775 97.069-43.365 98.5145-39.004 100.033-34.692 101.552-30.38 102.949-25.921 104.223-21.315L104.664-21.315C105.546-24.157 106.501-27.195 107.53-30.429 108.559-33.663 109.613-36.946 110.691-40.278 113.239-47.53 115.321-53.606 116.938-58.506 118.555-63.406 119.878-67.473 120.907-70.707 121.936-73.941 122.818-76.7585 123.553-79.1595 124.288-81.5605 125.048-83.888 125.832-86.142 126.42-87.808 127.081-89.5965 127.816-91.5075 128.551-93.4185 129.409-95.207 130.389-96.873 128.429-96.775 126.469-96.7015 124.509-96.6525 122.549-96.6035 120.589-96.53 118.629-96.432L118.629-102.9 148.47-102.9 148.47-98.049C145.138-97.657 142.516-96.922 140.605-95.844 138.694-94.766 137.004-92.757 135.534-89.817 134.064-86.877 132.3-82.369 130.242-76.293 125.734-62.965 121.348-49.8575 117.085-36.9705 112.822-24.0835 108.388-11.27 103.782 1.47L99.372 1.47 77.028-62.328C76.146-64.876 75.2885-67.375 74.4555-69.825 73.6225-72.275 72.765-74.725 71.883-77.175 71.099-74.725 70.2905-72.275 69.4575-69.825 68.6245-67.375 67.816-64.925 67.032-62.475L46.011 1.47Z" transform="matrix(1 0 0 1 108.275 202)"/></g></g><path d="M1106 552.834C1106 529.73 1124.73 511 1147.83 511L1315.17 511C1338.27 511 1357 529.73 1357 552.834L1357 720.166C1357 743.271 1338.27 762.001 1315.17 762.001L1147.83 762.001C1124.73 762.001 1106 743.271 1106 720.166Z" fill="#F2F2F2" fill-rule="evenodd"/><text font-family="Lora,Lora_MSFontService,sans-serif" font-weight="400" font-size="147" transform="matrix(1 0 0 1 1158.55 686)">W</text><g clip-path="url(#clip24)" filter="url(#fx3)" transform="translate(1096 773)"><g clip-path="url(#clip25)"><path d="M19.7225 61.3904C19.7225 38.378 38.3777 19.7228 61.3901 19.7228L229.055 19.7228C252.068 19.7228 270.723 38.378 270.723 61.3904L270.723 228.055C270.723 251.067 252.068 269.723 229.055 269.723L61.3901 269.723C38.3777 269.723 19.7225 251.067 19.7225 228.055Z" fill="#F2F2F2" fill-rule="evenodd"/></g></g><g clip-path="url(#clip26)" filter="url(#fx4)" transform="translate(1092 766)"><g clip-path="url(#clip27)"><path d="M65.856-71.736C65.562-76.44 64.435-80.899 62.475-85.113 60.515-89.327 57.673-92.757 53.949-95.403 50.225-98.049 45.472-99.372 39.69-99.372 33.614-99.372 28.959-97.657 25.725-94.227 22.491-90.797 20.874-86.779 20.874-82.173 20.874-78.057 22.05-74.6025 24.402-71.8095 26.754-69.0165 29.8165-66.5665 33.5895-64.4595 37.3625-62.3525 41.356-60.319 45.57-58.359 49.294-56.693 53.018-54.9045 56.742-52.9935 60.466-51.0825 63.847-48.902 66.885-46.452 69.923-44.002 72.3485-41.0865 74.1615-37.7055 75.9745-34.3245 76.881-30.282 76.881-25.578 76.881-20.188 75.5335-15.386 72.8385-11.172 70.1435-6.958 66.248-3.6505 61.152-1.2495 56.056 1.1515 49.833 2.352 42.483 2.352 38.073 2.352 33.516 1.715 28.812 0.441 24.108-0.833 19.943-2.695 16.317-5.145L17.052 1.176 9.408 1.176 8.526-30.135 14.259-30.135C14.749-21.511 17.738-14.9695 23.226-10.5105 28.714-6.0515 35.329-3.822 43.071-3.822 46.893-3.822 50.421-4.5325 53.655-5.9535 56.889-7.3745 59.4615-9.457 61.3725-12.201 63.2835-14.945 64.239-18.277 64.239-22.197 64.239-26.607 63.063-30.282 60.711-33.222 58.359-36.162 55.321-38.71 51.597-40.866 47.873-43.022 43.904-45.08 39.69-47.04 35.966-48.706 32.291-50.47 28.665-52.332 25.039-54.194 21.7315-56.3255 18.7425-58.7265 15.7535-61.1275 13.3525-63.994 11.5395-67.326 9.7265-70.658 8.82-74.676 8.82-79.38 8.82-81.928 9.261-84.672 10.143-87.612 11.025-90.552 12.5685-93.3695 14.7735-96.0645 16.9785-98.7595 20.0165-100.964 23.8875-102.679 27.7585-104.394 32.683-105.252 38.661-105.252 42.385-105.252 46.5745-104.737 51.2295-103.708 55.8845-102.679 60.221-100.695 64.239-97.755L63.651-104.076 71.148-104.076 71.148-71.736Z" transform="matrix(1 0 0 1 107.786 202)"/></g></g><path d="M1106 824.668C1106 801.655 1124.66 783 1147.67 783L1315.33 783C1338.34 783 1357 801.655 1357 824.668L1357 991.332C1357 1014.34 1338.34 1033 1315.33 1033L1147.67 1033C1124.66 1033 1106 1014.34 1106 991.332Z" fill="#F2F2F2" fill-rule="evenodd"/><text font-family="Lora,Lora_MSFontService,sans-serif" font-weight="400" font-size="147" transform="matrix(1 0 0 1 1190.06 958)">S</text><g clip-path="url(#clip28)" filter="url(#fx5)" transform="translate(1371 769)"><g clip-path="url(#clip29)"><path d="M19.7225 61.5569C19.7225 38.4525 38.4523 19.7227 61.5567 19.7227L228.889 19.7227C251.993 19.7227 270.723 38.4525 270.723 61.5569L270.723 228.889C270.723 251.993 251.993 270.723 228.889 270.723L61.5567 270.723C38.4523 270.723 19.7225 251.993 19.7225 228.889Z" fill="#F2F2F2" fill-rule="evenodd"/></g></g><g clip-path="url(#clip30)" filter="url(#fx6)" transform="translate(1354 762)"><g clip-path="url(#clip31)"><path d="M8.085-4.851C11.809-5.047 14.357-5.9045 15.729-7.4235 17.101-8.9425 17.8605-11.0495 18.0075-13.7445 18.1545-16.4395 18.228-19.502 18.228-22.932L18.228-86.436C18.228-88.396 18.277-90.2825 18.375-92.0955 18.473-93.9085 18.571-95.55 18.669-97.02 16.905-96.922 15.141-96.824 13.377-96.726 11.613-96.628 9.849-96.53 8.085-96.432L8.085-102.9 42.777-103.047C51.597-103.047 59.682-102.018 67.032-99.96 74.382-97.902 80.7275-94.7415 86.0685-90.4785 91.4095-86.2155 95.5255-80.8255 98.4165-74.3085 101.307-67.7915 102.753-60.123 102.753-51.303 102.753-44.541 101.577-38.073 99.225-31.899 96.873-25.725 93.345-20.2615 88.641-15.5085 83.937-10.7555 78.0815-6.9825 71.0745-4.1895 64.0675-1.3965 55.958 0 46.746 0L8.085 0ZM31.017-17.346C31.017-14.7 30.9925-12.446 30.9435-10.584 30.8945-8.722 30.772-7.154 30.576-5.88 33.222-5.782 35.6475-5.7085 37.8525-5.6595 40.0575-5.6105 41.9195-5.586 43.4385-5.586 44.9575-5.586 45.913-5.586 46.305-5.586 52.675-5.586 58.4325-6.762 63.5775-9.114 68.7225-11.466 73.1325-14.7245 76.8075-18.8895 80.4825-23.0545 83.3245-27.9545 85.3335-33.5895 87.3425-39.2245 88.347-45.325 88.347-51.891 88.347-61.201 86.6565-69.2615 83.2755-76.0725 79.8945-82.8835 74.725-88.1755 67.767-91.9485 60.809-95.7215 51.94-97.608 41.16-97.608 37.534-97.608 35.0105-96.873 33.5895-95.403 32.1685-93.933 31.3845-91.875 31.2375-89.229 31.0905-86.583 31.017-83.496 31.017-79.968Z" transform="matrix(1 0 0 1 107.522 202)"/></g></g><path d="M1381 820.834C1381 797.73 1399.73 779 1422.83 779L1590.17 779C1613.27 779 1632 797.73 1632 820.834L1632 988.166C1632 1011.27 1613.27 1030 1590.17 1030L1422.83 1030C1399.73 1030 1381 1011.27 1381 988.166Z" fill="#F2F2F2" fill-rule="evenodd"/><text font-family="Lora,Lora_MSFontService,sans-serif" font-weight="400" font-size="147" transform="matrix(1 0 0 1 1451.8 954)">D</text><g clip-path="url(#clip32)" filter="url(#fx7)" transform="translate(821 773)"><g clip-path="url(#clip33)"><path d="M19.7225 61.3904C19.7225 38.378 38.3777 19.7228 61.3901 19.7228L229.055 19.7228C252.068 19.7228 270.723 38.378 270.723 61.3904L270.723 228.055C270.723 251.067 252.068 269.723 229.055 269.723L61.3901 269.723C38.3777 269.723 19.7225 251.067 19.7225 228.055Z" fill="#F2F2F2" fill-rule="evenodd"/></g></g><g clip-path="url(#clip34)" filter="url(#fx8)" transform="translate(813 766)"><g clip-path="url(#clip35)"><path d="M-0.882 0-0.882-4.851C2.058-4.851 4.312-5.635 5.88-7.203 7.448-8.771 8.7465-10.927 9.7755-13.671 10.8045-16.415 12.005-19.6 13.377-23.226L43.659-105.693 47.187-105.693 79.968-22.05C80.752-19.992 81.634-17.346 82.614-14.112 83.594-10.878 83.986-8.134 83.79-5.88 85.456-5.978 87.122-6.076 88.788-6.174 90.454-6.272 92.12-6.37 93.786-6.468L93.786 0 60.123 0 60.123-4.851C63.847-4.949 66.297-5.782 67.473-7.35 68.649-8.918 69.09-10.78 68.796-12.936 68.502-15.092 68.012-17.052 67.326-18.816L62.181-32.634 23.961-31.752 18.816-16.023C18.13-13.671 17.5175-11.809 16.9785-10.437 16.4395-9.065 15.827-7.546 15.141-5.88 17.101-5.978 19.0365-6.076 20.9475-6.174 22.8585-6.272 24.745-6.37 26.607-6.468L26.607 0ZM26.166-38.073 60.123-38.073 49.686-66.15C48.608-69.188 47.5055-72.2015 46.3785-75.1905 45.2515-78.1795 44.149-81.193 43.071-84.231L42.777-84.231C41.797-81.487 40.7925-78.743 39.7635-75.999 38.7345-73.255 37.681-70.462 36.603-67.62Z" transform="matrix(1 0 0 1 107.575 202)"/></g></g><path d="M831 824.668C831 801.655 849.655 783 872.667 783L1040.33 783C1063.34 783 1082 801.655 1082 824.668L1082 991.332C1082 1014.34 1063.34 1033 1040.33 1033L872.667 1033C849.655 1033 831 1014.34 831 991.332Z" fill="#F2F2F2" fill-rule="evenodd"/><text font-family="Lora,Lora_MSFontService,sans-serif" font-weight="400" font-size="147" transform="matrix(1 0 0 1 910.853 958)">A</text><path d="M631.45 773.815 688.315 773.815 688.315 717.317 715.685 717.317 715.685 773.815 772.55 773.815 772.55 801.185 715.685 801.185 715.685 857.683 688.315 857.683 688.315 801.185 631.45 801.185Z" fill="#0000FF" fill-rule="evenodd"/><g clip-path="url(#clip36)" filter="url(#fx9)" transform="translate(480 1729)"><g clip-path="url(#clip37)"><path d="M19.7226 57.8898C19.7226 36.8107 36.8105 19.7228 57.8895 19.7228L915.556 19.7228C936.635 19.7228 953.723 36.8107 953.723 57.8898L953.723 210.556C953.723 231.635 936.635 248.723 915.556 248.723L57.8895 248.723C36.8105 248.723 19.7226 231.635 19.7226 210.556Z" fill="#F2F2F2" fill-rule="evenodd"/></g></g><g clip-path="url(#clip38)" filter="url(#fx10)" transform="translate(729 1744)"><g clip-path="url(#clip39)"><path d="M49.28-53.68C49.06-57.2 48.2167-60.5367 46.75-63.69 45.2833-66.8433 43.1567-69.41 40.37-71.39 37.5833-73.37 34.0267-74.36 29.7-74.36 25.1533-74.36 21.67-73.0767 19.25-70.51 16.83-67.9433 15.62-64.9367 15.62-61.49 15.62-58.41 16.5-55.825 18.26-53.735 20.02-51.645 22.3117-49.8117 25.135-48.235 27.9583-46.6583 30.9467-45.1367 34.1-43.67 36.8867-42.4233 39.6733-41.085 42.46-39.655 45.2467-38.225 47.7767-36.5933 50.05-34.76 52.3233-32.9267 54.1383-30.745 55.495-28.215 56.8517-25.685 57.53-22.66 57.53-19.14 57.53-15.1067 56.5217-11.5133 54.505-8.36 52.4883-5.20667 49.5733-2.73167 45.76-0.935 41.9467 0.861667 37.29 1.76 31.79 1.76 28.49 1.76 25.08 1.28333 21.56 0.33 18.04-0.623333 14.9233-2.01667 12.21-3.85L12.76 0.88 7.04 0.88 6.38-22.55 10.67-22.55C11.0367-16.0967 13.2733-11.2017 17.38-7.865 21.4867-4.52833 26.4367-2.86 32.23-2.86 35.09-2.86 37.73-3.39167 40.15-4.455 42.57-5.51833 44.495-7.07667 45.925-9.13 47.355-11.1833 48.07-13.6767 48.07-16.61 48.07-19.91 47.19-22.66 45.43-24.86 43.67-27.06 41.3967-28.9667 38.61-30.58 35.8233-32.1933 32.8533-33.7333 29.7-35.2 26.9133-36.4467 24.1633-37.7667 21.45-39.16 18.7367-40.5533 16.2617-42.1483 14.025-43.945 11.7883-45.7417 9.99166-47.8867 8.635-50.38 7.27833-52.8733 6.6-55.88 6.6-59.4 6.6-61.3067 6.93-63.36 7.59-65.56 8.25-67.76 9.405-69.8683 11.055-71.885 12.705-73.9017 14.9783-75.5517 17.875-76.835 20.7717-78.1183 24.4567-78.76 28.93-78.76 31.7167-78.76 34.8517-78.375 38.335-77.605 41.8183-76.835 45.0633-75.35 48.07-73.15L47.63-77.88 53.24-77.88 53.24-53.68ZM66.2979 28.05 66.2979 24.75C68.5712 24.75 70.1479 24.1817 71.0279 23.045 71.9079 21.9083 72.4212 20.3317 72.5679 18.315 72.7146 16.2983 72.7879 13.97 72.7879 11.33L73.0079-41.8C73.0079-42.9733 73.0262-44.1467 73.0629-45.32 73.0996-46.4933 73.2279-47.7033 73.4479-48.95 72.1279-48.8767 70.8262-48.8033 69.5429-48.73 68.2596-48.6567 66.9579-48.5833 65.6379-48.51L65.6379-53.13C68.8646-53.13 71.3029-53.2767 72.9529-53.57 74.6029-53.8633 75.8129-54.23 76.5829-54.67 77.3529-55.11 77.9946-55.5867 78.5079-56.1L81.8079-56.1C81.8812-55.3667 81.9546-54.505 82.0279-53.515 82.1012-52.525 82.1746-51.4067 82.2479-50.16 84.4479-52.14 87.0696-53.735 90.1129-54.945 93.1562-56.155 96.2179-56.76 99.2979-56.76 103.551-56.76 107.511-55.66 111.178-53.46 114.845-51.26 117.815-48.125 120.088-44.055 122.361-39.985 123.498-35.1267 123.498-29.48 123.498-23.2467 122.196-17.7833 119.593-13.09 116.99-8.39667 113.561-4.74833 109.308-2.145 105.055 0.458333 100.435 1.76 95.4479 1.76 92.8812 1.76 90.5162 1.44833 88.3529 0.825 86.1896 0.201667 84.1546-0.696667 82.2479-1.87L82.2479 16.39C82.2479 17.8567 82.2296 19.1583 82.1929 20.295 82.1562 21.4317 82.0279 22.6233 81.8079 23.87 82.9812 23.7967 84.1362 23.7417 85.2729 23.705 86.4096 23.6683 87.5646 23.6133 88.7379 23.54L88.7379 28.05ZM95.2279-2.64C98.7479-2.64 101.773-3.72167 104.303-5.885 106.833-8.04833 108.776-11.0183 110.133-14.795 111.49-18.5717 112.168-22.88 112.168-27.72 112.168-31.68 111.6-35.475 110.463-39.105 109.326-42.735 107.53-45.6867 105.073-47.96 102.616-50.2333 99.3712-51.37 95.3379-51.37 92.8446-51.37 90.4429-50.765 88.1329-49.555 85.8229-48.345 83.8979-46.8967 82.3579-45.21 82.3579-44.9167 82.3762-44.495 82.4129-43.945 82.4496-43.395 82.4679-42.4417 82.4679-41.085 82.4679-39.7283 82.4679-37.7117 82.4679-35.035 82.4679-32.3583 82.4496-28.7467 82.4129-24.2 82.3762-19.6533 82.3579-13.8967 82.3579-6.93 84.1912-5.53667 86.1896-4.47333 88.3529-3.74 90.5162-3.00667 92.8079-2.64 95.2279-2.64ZM166.613 0C166.393-1.24667 166.247-2.34667 166.173-3.3 166.1-4.25333 165.99-5.24333 165.843-6.27 163.35-3.77667 160.655-1.815 157.758-0.385 154.862 1.045 151.8 1.76 148.573 1.76 143 1.76 138.857 0.495 136.143-2.035 133.43-4.565 132.073-7.66333 132.073-11.33 132.073-14.7033 133.118-17.6183 135.208-20.075 137.298-22.5317 140.012-24.5483 143.348-26.125 146.685-27.7017 150.315-28.875 154.238-29.645 158.162-30.415 161.957-30.7633 165.623-30.69L165.623-37.51C165.623-40.0767 165.403-42.4967 164.963-44.77 164.523-47.0433 163.57-48.9133 162.103-50.38 160.637-51.8467 158.29-52.6167 155.063-52.69 152.937-52.7633 150.755-52.36 148.518-51.48 146.282-50.6 144.65-49.0967 143.623-46.97 144.21-46.3833 144.595-45.705 144.778-44.935 144.962-44.165 145.053-43.45 145.053-42.79 145.053-41.91 144.687-40.9017 143.953-39.765 143.22-38.6283 141.937-38.0967 140.103-38.17 138.563-38.17 137.39-38.7017 136.583-39.765 135.777-40.8283 135.373-42.0933 135.373-43.56 135.373-46.0533 136.308-48.29 138.178-50.27 140.048-52.25 142.633-53.8267 145.933-55 149.233-56.1733 152.973-56.76 157.153-56.76 163.313-56.76 167.86-55.1283 170.793-51.865 173.727-48.6017 175.157-43.45 175.083-36.41 175.083-33.6967 175.083-30.965 175.083-28.215 175.083-25.465 175.065-22.715 175.028-19.965 174.992-17.215 174.973-14.4467 174.973-11.66 174.973-10.4867 174.937-9.31333 174.863-8.14 174.79-6.96667 174.68-5.64667 174.533-4.18 175.853-4.25333 177.155-4.32667 178.438-4.4 179.722-4.47333 181.023-4.54667 182.343-4.62L182.343 0ZM165.623-26.95C163.13-26.8767 160.508-26.565 157.758-26.015 155.008-25.465 152.478-24.64 150.168-23.54 147.858-22.44 145.988-20.9917 144.558-19.195 143.128-17.3983 142.45-15.2167 142.523-12.65 142.67-9.93666 143.568-7.90167 145.218-6.545 146.868-5.18833 148.83-4.51 151.103-4.51 154.11-4.51 156.732-5.07833 158.968-6.215 161.205-7.35167 163.423-8.94667 165.623-11 165.55-11.8067 165.513-12.6867 165.513-13.64 165.513-14.5933 165.513-15.5833 165.513-16.61 165.513-16.9767 165.532-18.15 165.568-20.13 165.605-22.11 165.623-24.3833 165.623-26.95ZM216.732 1.76C211.819 1.76 207.29 0.641667 203.147-1.595 199.004-3.83167 195.704-7.05833 193.247-11.275 190.79-15.4917 189.562-20.57 189.562-26.51 189.562-30.3233 190.259-34.0267 191.652-37.62 193.045-41.2133 195.007-44.4583 197.537-47.355 200.067-50.2517 203.092-52.5433 206.612-54.23 210.132-55.9167 214.019-56.76 218.272-56.76 222.379-56.76 225.954-56.1367 228.997-54.89 232.04-53.6433 234.405-51.9933 236.092-49.94 237.779-47.8867 238.622-45.65 238.622-43.23 238.622-41.6167 238.182-40.2417 237.302-39.105 236.422-37.9683 235.139-37.4 233.452-37.4 231.619-37.3267 230.317-37.895 229.547-39.105 228.777-40.315 228.392-41.3967 228.392-42.35 228.392-43.0833 228.502-43.835 228.722-44.605 228.942-45.375 229.382-46.09 230.042-46.75 229.455-48.51 228.429-49.8117 226.962-50.655 225.495-51.4983 223.974-52.0483 222.397-52.305 220.82-52.5617 219.519-52.69 218.492-52.69 213.505-52.69 209.307-50.6917 205.897-46.695 202.487-42.6983 200.782-36.8867 200.782-29.26 200.782-24.3467 201.57-19.9833 203.147-16.17 204.724-12.3567 206.942-9.36833 209.802-7.205 212.662-5.04167 215.962-3.96 219.702-3.96 223.149-3.96 226.449-4.87667 229.602-6.71 232.755-8.54333 235.212-10.78 236.972-13.42L239.832-11.22C237.925-8.14 235.634-5.64667 232.957-3.74 230.28-1.83333 227.53-0.44 224.707 0.44 221.884 1.32 219.225 1.76 216.732 1.76Z" transform="matrix(1 0 0 1 85.8721 157)"/><path d="M31.46 1.76C26.4 1.76 21.835 0.568333 17.765-1.815 13.695-4.19833 10.4867-7.57167 8.14-11.935 5.79333-16.2983 4.62-21.45 4.62-27.39 4.62-32.5233 5.775-37.3267 8.085-41.8 10.395-46.2733 13.64-49.885 17.82-52.635 22-55.385 26.84-56.76 32.34-56.76 35.42-56.76 38.2983-56.265 40.975-55.275 43.6517-54.285 46.0167-52.7817 48.07-50.765 50.1233-48.7483 51.7367-46.2183 52.91-43.175 54.0833-40.1317 54.67-36.5567 54.67-32.45L15.95-31.79C15.95-26.2167 16.555-21.3217 17.765-17.105 18.975-12.8883 20.9367-9.625 23.65-7.315 26.3633-5.005 29.8467-3.85 34.1-3.85 36.3733-3.85 38.7017-4.25333 41.085-5.06 43.4683-5.86667 45.6867-6.96667 47.74-8.36 49.7933-9.75333 51.4433-11.2933 52.69-12.98L55.33-10.78C53.35-7.7 50.9667-5.24333 48.18-3.41 45.3933-1.57667 42.5333-0.256667 39.6 0.55 36.6667 1.35667 33.9533 1.76 31.46 1.76ZM16.28-36.41 44.33-36.41C44.33-39.05 43.945-41.5983 43.175-44.055 42.405-46.5117 41.14-48.5283 39.38-50.105 37.62-51.6817 35.31-52.47 32.45-52.47 28.1967-52.47 24.6583-51.205 21.835-48.675 19.0117-46.145 17.16-42.0567 16.28-36.41Z" transform="matrix(1 0 0 1 329.362 157)"/></g></g><path d="M490 1777.17C490 1756.09 507.088 1739 528.167 1739L1385.83 1739C1406.91 1739 1424 1756.09 1424 1777.17L1424 1929.83C1424 1950.91 1406.91 1968 1385.83 1968L528.167 1968C507.088 1968 490 1950.91 490 1929.83Z" fill="#F2F2F2" fill-rule="evenodd"/><text font-family="Lora,Lora_MSFontService,sans-serif" font-weight="400" font-size="110" transform="matrix(1 0 0 1 805.149 1891)">Spac</text><text font-family="Lora,Lora_MSFontService,sans-serif" font-weight="400" font-size="110" transform="matrix(1 0 0 1 1048.64 1891)">e</text><text font-family="Lora,Lora_MSFontService,sans-serif" font-weight="400" font-size="96" transform="matrix(1 0 0 1 442.493 2117)">Press Space </text><text font-family="Lora,Lora_MSFontService,sans-serif" font-weight="400" font-size="96" transform="matrix(1 0 0 1 999.368 2117)">to</text><text font-family="Lora,Lora_MSFontService,sans-serif" font-weight="400" font-size="96" transform="matrix(1 0 0 1 1117.96 2117)">activate</text><text fill="#0000FF" font-family="Lora,Lora_MSFontService,sans-serif" font-weight="700" font-size="96" transform="matrix(1 0 0 1 516.124 2232)">Interactive Objects</text></g></svg>