<svg width="1874" height="2475" xmlns="http://www.w3.org/2000/svg" xmlns:xlink="http://www.w3.org/1999/xlink" xml:space="preserve" overflow="hidden"><defs><clipPath id="clip0"><rect x="2527" y="-2" width="1874" height="2475"/></clipPath><clipPath id="clip1"><path d="M2552.14 875.126 2817.55 378.006 3314.67 643.42 3049.26 1140.54Z" fill-rule="evenodd" clip-rule="evenodd"/></clipPath><clipPath id="clip2"><path d="M2552.14 875.126 2817.55 378.006 3314.67 643.42 3049.26 1140.54Z" fill-rule="evenodd" clip-rule="evenodd"/></clipPath><clipPath id="clip3"><path d="M2552.14 875.126 2817.55 378.006 3314.67 643.42 3049.26 1140.54Z" fill-rule="evenodd" clip-rule="evenodd"/></clipPath><clipPath id="clip4"><path d="M2710.57 1754.27 2788.95 1436.28 3106.94 1514.65 3028.56 1832.64Z" fill-rule="evenodd" clip-rule="evenodd"/></clipPath><clipPath id="clip5"><path d="M2710.57 1754.27 2788.95 1436.28 3106.94 1514.65 3028.56 1832.64Z" fill-rule="evenodd" clip-rule="evenodd"/></clipPath><clipPath id="clip6"><path d="M2710.57 1754.27 2788.95 1436.28 3106.94 1514.65 3028.56 1832.64Z" fill-rule="evenodd" clip-rule="evenodd"/></clipPath></defs><g clip-path="url(#clip0)" transform="translate(-2527 2)"><rect x="2527" y="-2.00007" width="1873" height="2475" fill="#EDEDED"/><text fill="#0000FF" font-family="Lora,Lora_MSFontService,sans-serif" font-weight="700" font-size="165" transform="matrix(1 0 0 1 2855.27 272)">Touch Controls</text><path d="M2663 509.095C2663 467.069 2697.07 433 2739.09 433L3267.91 433C3309.93 433 3344 467.069 3344 509.095L3344 1047.91C3344 1089.93 3309.93 1124 3267.91 1124L2739.09 1124C2697.07 1124 2663 1089.93 2663 1047.91Z" fill="#FFFFFF" fill-rule="evenodd"/><path d="M2663 1238.14C2663 1208.79 2686.79 1185 2716.14 1185L4212.86 1185C4242.21 1185 4266 1208.79 4266 1238.14L4266 1799.86C4266 1829.21 4242.21 1853 4212.86 1853L2716.14 1853C2686.79 1853 2663 1829.21 2663 1799.86Z" fill="#FFFFFF" fill-rule="evenodd"/><g clip-path="url(#clip1)"><g clip-path="url(#clip2)"><g clip-path="url(#clip3)"><path d="M2963.2 528.968 2826.35 785.296 2856.26 678.161C2860.62 662.521 2851.34 646.253 2835.7 641.895 2820.06 637.537 2803.79 646.819 2799.43 662.459L2755.86 818.863C2754.65 824.871 2754.99 831.708 2757.95 838.615L2791.42 913.043 2770.68 951.881 2920.85 1032.06 2934.68 1006.17C2954.3 969.4 2997.11 988.929 3034.16 919.539 3043.01 902.968 3072.31 848.078 3083.93 826.329 3093.05 809.24 3086.53 787.794 3069.44 778.67 3061.16 774.247 3052.25 773.483 3044.31 775.897 3044.86 774.861 3045.41 773.825 3045.97 772.79 3055.09 755.701 3048.57 734.255 3031.49 725.131 3023.2 720.708 3013.77 719.668 3005.04 722.323 3009.39 706.682 3002.5 689.69 2988 681.949 2970.91 672.825 2949.46 679.342 2940.34 696.431L3014.99 556.615C3022.73 542.116 3017.42 524.641 3002.92 516.9 2988.42 509.159 2970.94 514.469 2963.2 528.968Z" fill="#0000FF"/></g></g></g><path d="M2749 558 2805 502 2805 530 2972 530 2972 586 2805 586 2805 614Z" fill="#0000FF" fill-rule="evenodd"/><path d="M3411 510.213C3411 467.569 3445.57 433 3488.21 433L4188.79 433C4231.43 433 4266 467.569 4266 510.213L4266 1046.79C4266 1089.43 4231.43 1124 4188.79 1124L3488.21 1124C3445.57 1124 3411 1089.43 3411 1046.79Z" fill="#FFFFFF" fill-rule="evenodd"/><text font-family="Lora,Lora_MSFontService,sans-serif" font-weight="400" font-size="110" transform="matrix(1 0 0 1 3510.84 612)">Swipe</text><text font-family="Lora,Lora_MSFontService,sans-serif" font-weight="400" font-size="110" transform="matrix(1 0 0 1 3846.57 612)">to</text><text fill="#0000FF" font-family="Lora,Lora_MSFontService,sans-serif" font-weight="700" font-size="110" transform="matrix(1 0 0 1 3510.84 744)">look</text><text font-family="Lora,Lora_MSFontService,sans-serif" font-weight="400" font-size="110" transform="matrix(1 0 0 1 3764.07 744)">around</text><text font-family="Lora,Lora_MSFontService,sans-serif" font-weight="400" font-size="110" transform="matrix(1 0 0 1 4131.31 744)">,</text><text font-family="Lora,Lora_MSFontService,sans-serif" font-weight="400" font-size="110" transform="matrix(1 0 0 1 3510.84 876)">Joystick </text><text font-family="Lora,Lora_MSFontService,sans-serif" font-weight="400" font-size="110" transform="matrix(1 0 0 1 3944.54 876)">to</text><text fill="#0000FF" font-family="Lora,Lora_MSFontService,sans-serif" font-weight="700" font-size="110" transform="matrix(1 0 0 1 3510.84 1008)">run</text><text font-family="Lora,Lora_MSFontService,sans-serif" font-weight="400" font-size="110" transform="matrix(1 0 0 1 3730.27 1008)">around</text><path d="M2994 915C2994 839.889 3054.89 779 3130 779 3205.11 779 3266 839.889 3266 915 3266 990.111 3205.11 1051 3130 1051 3054.89 1051 2994 990.111 2994 915Z" fill="#D9D9D9" fill-rule="evenodd"/><path d="M3069 915.5C3069 881.534 3096.31 854 3130 854 3163.69 854 3191 881.534 3191 915.5 3191 949.465 3163.69 977 3130 977 3096.31 977 3069 949.465 3069 915.5Z" fill="#F2F2F2" fill-rule="evenodd"/><text font-family="Lora,Lora_MSFontService,sans-serif" font-weight="400" font-size="73" transform="matrix(1 0 0 1 3163.03 1310)">If</text><text font-family="Lora,Lora_MSFontService,sans-serif" font-weight="400" font-size="73" transform="matrix(1 0 0 1 3231.78 1310)">you</text><text font-family="Lora,Lora_MSFontService,sans-serif" font-weight="400" font-size="73" transform="matrix(1 0 0 1 3376.72 1310)">see</text><text font-family="Lora,Lora_MSFontService,sans-serif" font-weight="400" font-size="73" transform="matrix(1 0 0 1 3509.07 1310)">this</text><text font-family="Lora,Lora_MSFontService,sans-serif" font-weight="400" font-size="73" transform="matrix(1 0 0 1 3655.73 1310)">symbol</text><text font-family="Lora,Lora_MSFontService,sans-serif" font-weight="400" font-size="73" transform="matrix(1 0 0 1 3899.22 1310)">, </text><text font-family="Lora,Lora_MSFontService,sans-serif" font-weight="400" font-size="73" transform="matrix(1 0 0 1 3937.04 1310)">you</text><text font-family="Lora,Lora_MSFontService,sans-serif" font-weight="400" font-size="73" transform="matrix(1 0 0 1 3163.03 1398)">can</text><text font-family="Lora,Lora_MSFontService,sans-serif" font-weight="400" font-size="73" transform="matrix(1 0 0 1 3303.96 1398)">activate</text><text fill="#0000FF" font-family="Lora,Lora_MSFontService,sans-serif" font-weight="700" font-size="73" transform="matrix(1 0 0 1 3592.71 1398)">Immersive</text><text fill="#0000FF" font-family="Lora,Lora_MSFontService,sans-serif" font-weight="700" font-size="73" transform="matrix(1 0 0 1 3163.03 1486)">Mode</text><text font-family="Lora,Lora_MSFontService,sans-serif" font-weight="400" font-size="73" transform="matrix(1 0 0 1 3358.39 1486)">. Move </text><text font-family="Lora,Lora_MSFontService,sans-serif" font-weight="400" font-size="73" transform="matrix(1 0 0 1 3602.45 1486)">your</text><text font-family="Lora,Lora_MSFontService,sans-serif" font-weight="400" font-size="73" transform="matrix(1 0 0 1 3778.91 1486)">device</text><text font-family="Lora,Lora_MSFontService,sans-serif" font-weight="400" font-size="73" transform="matrix(1 0 0 1 4018.39 1486)">to</text><text font-family="Lora,Lora_MSFontService,sans-serif" font-weight="400" font-size="73" transform="matrix(1 0 0 1 3163.03 1574)">look</text><text font-family="Lora,Lora_MSFontService,sans-serif" font-weight="400" font-size="73" transform="matrix(1 0 0 1 3328.03 1574)">around</text><text font-family="Lora,Lora_MSFontService,sans-serif" font-weight="400" font-size="73" transform="matrix(1 0 0 1 3572.66 1574)">!</text><text font-family="Lora,Lora_MSFontService,sans-serif" font-weight="400" font-size="73" transform="matrix(1 0 0 1 3163.03 1682)">Press </text><text font-family="Lora,Lora_MSFontService,sans-serif" font-weight="400" font-size="73" transform="matrix(1 0 0 1 3365.84 1682)">anywhere</text><text font-family="Lora,Lora_MSFontService,sans-serif" font-weight="400" font-size="73" transform="matrix(1 0 0 1 3720.47 1682)">to</text><text font-family="Lora,Lora_MSFontService,sans-serif" font-weight="400" font-size="73" transform="matrix(1 0 0 1 3811.57 1682)">move</text><text font-family="Lora,Lora_MSFontService,sans-serif" font-weight="400" font-size="73" transform="matrix(1 0 0 1 3163.03 1770)">forward</text><text font-family="Lora,Lora_MSFontService,sans-serif" font-weight="400" font-size="73" transform="matrix(1 0 0 1 3434.59 1770)">. </text><path d="M2663 1998.74C2663 1958.01 2696.01 1925 2736.74 1925L4192.26 1925C4232.99 1925 4266 1958.01 4266 1998.74L4266 2269.26C4266 2309.99 4232.99 2343 4192.26 2343L2736.74 2343C2696.01 2343 2663 2309.99 2663 2269.26Z" fill="#FFFFFF" fill-rule="evenodd"/><path d="M2972 1833 2903.5 1914 2835 1833Z" fill="#FFFFFF" fill-rule="evenodd"/><text fill="#0000FF" font-family="Lora,Lora_MSFontService,sans-serif" font-weight="700" font-size="83" transform="matrix(1 0 0 1 2740 2062)">Immersive Mode</text><text font-family="Lora,Lora_MSFontService,sans-serif" font-weight="400" font-size="83" transform="matrix(1 0 0 1 3426.36 2062)">is</text><text font-family="Lora,Lora_MSFontService,sans-serif" font-weight="400" font-size="83" transform="matrix(1 0 0 1 3509.43 2062)">only</text><text font-family="Lora,Lora_MSFontService,sans-serif" font-weight="400" font-size="83" transform="matrix(1 0 0 1 3695.05 2062)">available</text><text font-family="Lora,Lora_MSFontService,sans-serif" font-weight="400" font-size="83" transform="matrix(1 0 0 1 4046.25 2062)">on </text><text font-family="Lora,Lora_MSFontService,sans-serif" font-weight="400" font-size="83" transform="matrix(1 0 0 1 2740 2161)">devices</text><text font-family="Lora,Lora_MSFontService,sans-serif" font-weight="400" font-size="83" transform="matrix(1 0 0 1 3047.66 2161)">with</text><text font-family="Lora,Lora_MSFontService,sans-serif" font-weight="400" font-size="83" transform="matrix(1 0 0 1 3239.58 2161)">a </text><text font-family="Lora,Lora_MSFontService,sans-serif" font-weight="400" font-size="83" transform="matrix(1 0 0 1 3303.75 2161)">Gyroscope</text><text font-family="Lora,Lora_MSFontService,sans-serif" font-weight="400" font-size="83" transform="matrix(1 0 0 1 3740.31 2161)">(</text><text font-family="Lora,Lora_MSFontService,sans-serif" font-weight="400" font-size="83" transform="matrix(1 0 0 1 3765.52 2161)">almost</text><text font-family="Lora,Lora_MSFontService,sans-serif" font-weight="400" font-size="83" transform="matrix(1 0 0 1 4044.53 2161)">all </text><text font-family="Lora,Lora_MSFontService,sans-serif" font-weight="400" font-size="83" transform="matrix(1 0 0 1 2740 2260)">modern </text><text font-family="Lora,Lora_MSFontService,sans-serif" font-weight="400" font-size="83" transform="matrix(1 0 0 1 3063.13 2260)">phones</text><text font-family="Lora,Lora_MSFontService,sans-serif" font-weight="400" font-size="83" transform="matrix(1 0 0 1 3342.71 2260)">) </text><path d="M2762.34 1419.44C2762.34 1330.52 2834.65 1258.44 2923.84 1258.44 3013.04 1258.44 3085.34 1330.52 3085.34 1419.44 3085.34 1508.35 3013.04 1580.44 2923.84 1580.44 2834.65 1580.44 2762.34 1508.35 2762.34 1419.44Z" stroke="#000000" stroke-width="6.875" stroke-miterlimit="8" fill="#FFFFFF" fill-rule="evenodd"/><path d="M2785.84 1418.94C2785.84 1343.27 2847.18 1281.94 2922.84 1281.94 2998.51 1281.94 3059.84 1343.27 3059.84 1418.94 3059.84 1494.6 2998.51 1555.94 2922.84 1555.94 2847.18 1555.94 2785.84 1494.6 2785.84 1418.94Z" fill="#FFFFFF" fill-rule="evenodd"/><path d="M2820.5 1419.5 2852.78 1394.25 2852.78 1410.39 2914.89 1410.39 2914.89 1348.78 2898.75 1348.78 2924 1316.5 2949.25 1348.78 2933.11 1348.78 2933.11 1410.39 2995.22 1410.39 2995.22 1394.25 3027.5 1419.5 2995.22 1444.75 2995.22 1428.61 2933.11 1428.61 2933.11 1490.22 2949.25 1490.22 2924 1522.5 2898.75 1490.22 2914.89 1490.22 2914.89 1428.61 2852.78 1428.61 2852.78 1444.75Z" stroke="#000000" stroke-width="6.875" stroke-miterlimit="8" fill-rule="evenodd"/><g clip-path="url(#clip4)"><g clip-path="url(#clip5)"><g clip-path="url(#clip6)"><path d="M2892.59 1500.47 2852.18 1664.44 2853.7 1599.81C2853.92 1590.38 2846.36 1582.54 2836.93 1582.32 2827.49 1582.11 2819.66 1589.66 2819.44 1599.1L2817.27 1693.43C2817.45 1696.99 2818.62 1700.79 2821.28 1704.25L2850.78 1741.39 2844.65 1766.23 2940.71 1789.91 2944.8 1773.35C2950.59 1749.83 2977.5 1754.7 2988.44 1710.32 2991.05 1699.72 2999.71 1664.61 3003.13 1650.7 3005.83 1639.76 2999.09 1628.62 2988.16 1625.92 2982.86 1624.62 2977.73 1625.46 2973.6 1627.96 2973.77 1627.29 2973.93 1626.63 2974.09 1625.97 2976.79 1615.04 2970.05 1603.89 2959.12 1601.2 2953.82 1599.89 2948.36 1600.65 2943.82 1603.4 2944.03 1593.96 2937.72 1585.38 2928.44 1583.09 2917.51 1580.4 2906.36 1587.14 2903.67 1598.07L2925.71 1508.64C2928 1499.36 2922.51 1490.28 2913.23 1487.99 2903.96 1485.71 2894.87 1491.2 2892.59 1500.47Z" fill="#0000FF"/></g></g></g></g></svg>