<svg width="1873" height="2475" xmlns="http://www.w3.org/2000/svg" xmlns:xlink="http://www.w3.org/1999/xlink" xml:space="preserve" overflow="hidden"><defs><clipPath id="clip0"><rect x="0" y="0" width="1873" height="2475"/></clipPath></defs><g clip-path="url(#clip0)"><rect x="0" y="0" width="1873" height="2475" fill="#EDEDED"/><path d="M135 401.235C135 377.909 153.909 359 177.235 359L1695.77 359C1719.09 359 1738 377.909 1738 401.235L1738 783.765C1738 807.091 1719.09 826 1695.77 826L177.235 826C153.909 826 135 807.091 135 783.765Z" fill-rule="evenodd"/><text fill="#0000FF" font-family="Lora,Lora_MSFontService,sans-serif" font-weight="700" font-size="165" transform="matrix(1 0 0 1 264.249 272)">noel</text><text fill="#0000FF" font-family="Lora,Lora_MSFontService,sans-serif" font-weight="700" font-size="165" transform="matrix(1 0 0 1 602.843 272)">-</text><text fill="#0000FF" font-family="Lora,Lora_MSFontService,sans-serif" font-weight="700" font-size="165" transform="matrix(1 0 0 1 680.759 272)">friedrich.de</text><text fill="#FFFFFF" font-family="Cascadia Code,Cascadia Code_MSFontService,sans-serif" font-weight="400" font-size="60" transform="matrix(1 0 0 1 339.742 504)">\</text><text fill="#FFFFFF" font-family="Cascadia Code,Cascadia Code_MSFontService,sans-serif" font-weight="400" font-size="60" transform="matrix(1 0 0 1 374.689 504)">O</text><text fill="#FFFFFF" font-family="Cascadia Code,Cascadia Code_MSFontService,sans-serif" font-weight="400" font-size="60" transform="matrix(1 0 0 1 409.637 504)">_</text><text fill="#FFFFFF" font-family="Cascadia Code,Cascadia Code_MSFontService,sans-serif" font-weight="400" font-size="60" transform="matrix(1 0 0 1 243.492 576)">,/</text><text fill="#FFFFFF" font-family="Cascadia Code,Cascadia Code_MSFontService,sans-serif" font-weight="400" font-size="60" transform="matrix(1 0 0 1 313.387 576)">\</text><text fill="#FFFFFF" font-family="Cascadia Code,Cascadia Code_MSFontService,sans-serif" font-weight="400" font-size="60" transform="matrix(1 0 0 1 348.335 576)">/</text><text fill="#FFFFFF" font-family="Cascadia Code,Cascadia Code_MSFontService,sans-serif" font-weight="400" font-size="60" transform="matrix(1 0 0 1 313.387 648)">/</text><text fill="#FFFFFF" font-family="Cascadia Code,Cascadia Code_MSFontService,sans-serif" font-weight="400" font-size="60" transform="matrix(1 0 0 1 313.387 719)">\</text><text fill="#FFFFFF" font-family="Cascadia Code,Cascadia Code_MSFontService,sans-serif" font-weight="400" font-size="60" transform="matrix(1 0 0 1 313.387 790)">`  </text><path d="M135 934.939C135 914.538 151.538 898 171.939 898L1701.06 898C1721.46 898 1738 914.538 1738 934.939L1738 1553.06C1738 1573.46 1721.46 1590 1701.06 1590L171.939 1590C151.538 1590 135 1573.46 135 1553.06Z" fill="#FFFFFF" fill-rule="evenodd"/><text font-family="Lora,Lora_MSFontService,sans-serif" font-weight="400" font-size="92" transform="matrix(1 0 0 1 277.438 1046)">This </text><text font-family="Lora,Lora_MSFontService,sans-serif" font-weight="400" font-size="92" transform="matrix(1 0 0 1 483.115 1046)">is</text><text font-family="Lora,Lora_MSFontService,sans-serif" font-weight="400" font-size="92" transform="matrix(1 0 0 1 575.354 1046)">my</text><text font-family="Lora,Lora_MSFontService,sans-serif" font-weight="400" font-size="92" transform="matrix(1 0 0 1 729.469 1046)">world</text><text font-family="Lora,Lora_MSFontService,sans-serif" font-weight="400" font-size="92" transform="matrix(1 0 0 1 976.396 1046)">. My </text><text font-family="Lora,Lora_MSFontService,sans-serif" font-weight="400" font-size="92" transform="matrix(1 0 0 1 1179.21 1046)">world</text><text font-family="Lora,Lora_MSFontService,sans-serif" font-weight="400" font-size="92" transform="matrix(1 0 0 1 1450.2 1046)">has</text><text fill="#0000FF" font-family="Lora,Lora_MSFontService,sans-serif" font-weight="700" font-size="92" transform="matrix(1 0 0 1 223.286 1156)">games</text><text font-family="Lora,Lora_MSFontService,sans-serif" font-weight="400" font-size="92" transform="matrix(1 0 0 1 500.577 1156)">, </text><text fill="#0000FF" font-family="Lora,Lora_MSFontService,sans-serif" font-weight="700" font-size="92" transform="matrix(1 0 0 1 547.556 1156)">projects</text><text font-family="Lora,Lora_MSFontService,sans-serif" font-weight="400" font-size="92" transform="matrix(1 0 0 1 929.692 1156)">I </text><text font-family="Lora,Lora_MSFontService,sans-serif" font-weight="400" font-size="92" transform="matrix(1 0 0 1 984.692 1156)">made</text><text font-family="Lora,Lora_MSFontService,sans-serif" font-weight="400" font-size="92" transform="matrix(1 0 0 1 1243.08 1156)">and </text><text font-family="Lora,Lora_MSFontService,sans-serif" font-weight="400" font-size="92" transform="matrix(1 0 0 1 1425.26 1156)">loads</text><text font-family="Lora,Lora_MSFontService,sans-serif" font-weight="400" font-size="92" transform="matrix(1 0 0 1 245.927 1266)">of</text><text font-family="Lora,Lora_MSFontService,sans-serif" font-weight="400" font-size="92" transform="matrix(1 0 0 1 354.781 1266)">useful</text><text font-family="Lora,Lora_MSFontService,sans-serif" font-weight="400" font-size="92" transform="matrix(1 0 0 1 637.229 1266)">links. </text><text font-family="Lora,Lora_MSFontService,sans-serif" font-weight="400" font-size="92" transform="matrix(1 0 0 1 881.865 1266)">Some</text><text font-family="Lora,Lora_MSFontService,sans-serif" font-weight="400" font-size="92" transform="matrix(1 0 0 1 1143.69 1266)">things</text><text font-family="Lora,Lora_MSFontService,sans-serif" font-weight="400" font-size="92" transform="matrix(1 0 0 1 1432.44 1266)">here</text><text font-family="Lora,Lora_MSFontService,sans-serif" font-weight="400" font-size="92" transform="matrix(1 0 0 1 233.598 1376)">are</text><text fill="#0000FF" font-family="Lora,Lora_MSFontService,sans-serif" font-weight="700" font-size="92" transform="matrix(1 0 0 1 394.588 1376)">interactive</text><text font-family="Lora,Lora_MSFontService,sans-serif" font-weight="400" font-size="92" transform="matrix(1 0 0 1 875.838 1376)">. </text><text font-family="Lora,Lora_MSFontService,sans-serif" font-weight="400" font-size="92" transform="matrix(1 0 0 1 922.244 1376)">It‘s</text><text font-family="Lora,Lora_MSFontService,sans-serif" font-weight="400" font-size="92" transform="matrix(1 0 0 1 1075.79 1376)">quite</text><text font-family="Lora,Lora_MSFontService,sans-serif" font-weight="400" font-size="92" transform="matrix(1 0 0 1 1318.7 1376)">a </text><text font-family="Lora,Lora_MSFontService,sans-serif" font-weight="400" font-size="92" transform="matrix(1 0 0 1 1390.32 1376)">lovely</text><text font-family="Lora,Lora_MSFontService,sans-serif" font-weight="400" font-size="92" transform="matrix(1 0 0 1 329.275 1486)">space</text><text font-family="Lora,Lora_MSFontService,sans-serif" font-weight="400" font-size="92" transform="matrix(1 0 0 1 572.765 1486)">, </text><text font-family="Lora,Lora_MSFontService,sans-serif" font-weight="400" font-size="92" transform="matrix(1 0 0 1 619.744 1486)">you</text><text font-family="Lora,Lora_MSFontService,sans-serif" font-weight="400" font-size="92" transform="matrix(1 0 0 1 800.786 1486)">should</text><text font-family="Lora,Lora_MSFontService,sans-serif" font-weight="400" font-size="92" transform="matrix(1 0 0 1 1111.31 1486)">explore</text><text font-family="Lora,Lora_MSFontService,sans-serif" font-weight="400" font-size="92" transform="matrix(1 0 0 1 1457.35 1486)">it!</text><path d="M135 1701.89C135 1681.51 151.515 1665 171.886 1665L1701.11 1665C1721.49 1665 1738 1681.51 1738 1701.89L1738 2319.11C1738 2339.49 1721.49 2356 1701.11 2356L171.886 2356C151.515 2356 135 2339.49 135 2319.11Z" fill="#FFFFFF" fill-rule="evenodd"/><text font-family="Lora,Lora_MSFontService,sans-serif" font-weight="400" font-size="92" transform="matrix(1 0 0 1 418.077 1812)">But Noel? </text><text font-family="Lora,Lora_MSFontService,sans-serif" font-weight="400" font-size="92" transform="matrix(1 0 0 1 856.358 1812)">Where</text><text font-family="Lora,Lora_MSFontService,sans-serif" font-weight="400" font-size="92" transform="matrix(1 0 0 1 1165.73 1812)">is</text><text font-family="Lora,Lora_MSFontService,sans-serif" font-weight="400" font-size="92" transform="matrix(1 0 0 1 1257.97 1812)">your</text><text fill="#0000FF" font-family="Lora,Lora_MSFontService,sans-serif" font-weight="700" font-size="92" transform="matrix(1 0 0 1 286.879 1922)">Terminal Website</text><text font-family="Lora,Lora_MSFontService,sans-serif" font-weight="400" font-size="92" transform="matrix(1 0 0 1 1070.06 1922)">? </text><text font-family="Lora,Lora_MSFontService,sans-serif" font-weight="400" font-size="92" transform="matrix(1 0 0 1 1137.66 1922)">It‘s</text><text font-family="Lora,Lora_MSFontService,sans-serif" font-weight="400" font-size="92" transform="matrix(1 0 0 1 1291.2 1922)">behind</text><text font-family="Lora,Lora_MSFontService,sans-serif" font-weight="400" font-size="92" transform="matrix(1 0 0 1 322.698 2032)">you</text><text font-family="Lora,Lora_MSFontService,sans-serif" font-weight="400" font-size="92" transform="matrix(1 0 0 1 479.677 2032)">! Click on </text><text font-family="Lora,Lora_MSFontService,sans-serif" font-weight="400" font-size="92" transform="matrix(1 0 0 1 899.052 2032)">the</text><text font-family="Lora,Lora_MSFontService,sans-serif" font-weight="400" font-size="92" transform="matrix(1 0 0 1 1063.48 2032)">button</text><text font-family="Lora,Lora_MSFontService,sans-serif" font-weight="400" font-size="92" transform="matrix(1 0 0 1 1376.29 2032)">that</text><text font-family="Lora,Lora_MSFontService,sans-serif" font-weight="400" font-size="92" transform="matrix(1 0 0 1 388.858 2143)">says</text><text font-family="Cascadia Code,Cascadia Code_MSFontService,sans-serif" font-weight="400" font-size="92" transform="matrix(1 0 0 1 593.39 2143)">terminal</text><text font-family="Lora,Lora_MSFontService,sans-serif" font-weight="400" font-size="92" transform="matrix(1 0 0 1 1048.29 2143)">to</text><text font-family="Lora,Lora_MSFontService,sans-serif" font-weight="400" font-size="92" transform="matrix(1 0 0 1 1161.72 2143)">open it.</text><text font-family="Lora,Lora_MSFontService,sans-serif" font-weight="400" font-size="92" transform="matrix(1 0 0 1 630.629 2252)">See </text><text font-family="Lora,Lora_MSFontService,sans-serif" font-weight="400" font-size="92" transform="matrix(1 0 0 1 806.515 2252)">you</text><text font-family="Lora,Lora_MSFontService,sans-serif" font-weight="400" font-size="92" transform="matrix(1 0 0 1 987.556 2252)">there</text><text font-family="Lora,Lora_MSFontService,sans-serif" font-weight="400" font-size="92" transform="matrix(1 0 0 1 1217.3 2252)">!</text><text fill="#FFFFFF" font-family="Cascadia Code,Cascadia Code_MSFontService,sans-serif" font-weight="400" font-size="60" transform="matrix(1 0 0 1 490.246 505)">This </text><text fill="#FFFFFF" font-family="Cascadia Code,Cascadia Code_MSFontService,sans-serif" font-weight="400" font-size="60" transform="matrix(1 0 0 1 664.986 505)">is me, Noel Friedrich.</text><text fill="#FFFFFF" font-family="Cascadia Code,Cascadia Code_MSFontService,sans-serif" font-weight="400" font-size="60" transform="matrix(1 0 0 1 490.246 576)">I </text><text fill="#FFFFFF" font-family="Cascadia Code,Cascadia Code_MSFontService,sans-serif" font-weight="400" font-size="60" transform="matrix(1 0 0 1 560.142 576)">am a student still learning.</text><text fill="#FFFFFF" font-family="Cascadia Code,Cascadia Code_MSFontService,sans-serif" font-weight="400" font-size="60" transform="matrix(1 0 0 1 490.246 648)">I </text><text fill="#FFFFFF" font-family="Cascadia Code,Cascadia Code_MSFontService,sans-serif" font-weight="400" font-size="60" transform="matrix(1 0 0 1 560.142 648)">also really love rainy weather.</text><text fill="#FFFFFF" font-family="Cascadia Code,Cascadia Code_MSFontService,sans-serif" font-weight="400" font-size="60" transform="matrix(1 0 0 1 490.246 719)">And </text><text fill="#FFFFFF" font-family="Cascadia Code,Cascadia Code_MSFontService,sans-serif" font-weight="400" font-size="60" transform="matrix(1 0 0 1 630.038 719)">command line interfaces</text><text fill="#FFFFFF" font-family="Cascadia Code,Cascadia Code_MSFontService,sans-serif" font-weight="400" font-size="60" transform="matrix(1 0 0 1 1433.84 719)">.</text></g></svg>