<svg width="1236" height="1235" xmlns="http://www.w3.org/2000/svg" xmlns:xlink="http://www.w3.org/1999/xlink" xml:space="preserve" overflow="hidden"><defs><clipPath id="clip0"><rect x="2482" y="727" width="1236" height="1235"/></clipPath></defs><g clip-path="url(#clip0)" transform="translate(-2482 -727)"><path d="M2482.41 1344.75C2482.41 1003.99 2758.87 727.753 3099.91 727.753 3440.95 727.753 3717.41 1003.99 3717.41 1344.75 3717.41 1685.51 3440.95 1961.75 3099.91 1961.75 2758.87 1961.75 2482.41 1685.51 2482.41 1344.75Z" fill="#FFFFFF" fill-rule="evenodd"/><path d="M2575.41 1344.75C2575.41 1055.91 2810.01 821.753 3099.41 821.753 3388.8 821.753 3623.41 1055.91 3623.41 1344.75 3623.41 1633.6 3388.8 1867.75 3099.41 1867.75 2810.01 1867.75 2575.41 1633.6 2575.41 1344.75Z" fill="#FFFFFF" fill-rule="evenodd"/><path d="M2706 1344.5 2829.64 1247.81 2829.64 1309.63 3065.63 1309.63 3065.63 1073.64 3003.81 1073.64 3100.5 950 3197.19 1073.64 3135.37 1073.64 3135.37 1309.63 3371.36 1309.63 3371.36 1247.81 3495 1344.5 3371.36 1441.19 3371.36 1379.37 3135.37 1379.37 3135.37 1615.36 3197.19 1615.36 3100.5 1739 3003.81 1615.36 3065.63 1615.36 3065.63 1379.37 2829.64 1379.37 2829.64 1441.19Z" fill-rule="evenodd"/></g></svg>